<?xml version="1.0" encoding="utf-8"?>
<svg xmlns="http://www.w3.org/2000/svg" xmlns:xlink="http://www.w3.org/1999/xlink" style="margin: auto; background: rgb(255, 255, 255); display: block; shape-rendering: auto;" width="256px" height="256px" viewBox="0 0 100 100" preserveAspectRatio="xMidYMid">
<g transform="rotate(0 50 50)">
  <rect x="45" y="18" rx="3.2" ry="3.2" width="10" height="8" fill="#ff4081">
    <animate attributeName="opacity" values="1;0" keyTimes="0;1" dur="2.1739130434782608s" begin="-2.0289855072463765s" repeatCount="indefinite"></animate>
  </rect>
</g><g transform="rotate(24 50 50)">
  <rect x="45" y="18" rx="3.2" ry="3.2" width="10" height="8" fill="#ff4081">
    <animate attributeName="opacity" values="1;0" keyTimes="0;1" dur="2.1739130434782608s" begin="-1.8840579710144927s" repeatCount="indefinite"></animate>
  </rect>
</g><g transform="rotate(48 50 50)">
  <rect x="45" y="18" rx="3.2" ry="3.2" width="10" height="8" fill="#ff4081">
    <animate attributeName="opacity" values="1;0" keyTimes="0;1" dur="2.1739130434782608s" begin="-1.7391304347826086s" repeatCount="indefinite"></animate>
  </rect>
</g><g transform="rotate(72 50 50)">
  <rect x="45" y="18" rx="3.2" ry="3.2" width="10" height="8" fill="#ff4081">
    <animate attributeName="opacity" values="1;0" keyTimes="0;1" dur="2.1739130434782608s" begin="-1.5942028985507246s" repeatCount="indefinite"></animate>
  </rect>
</g><g transform="rotate(96 50 50)">
  <rect x="45" y="18" rx="3.2" ry="3.2" width="10" height="8" fill="#ff4081">
    <animate attributeName="opacity" values="1;0" keyTimes="0;1" dur="2.1739130434782608s" begin="-1.4492753623188406s" repeatCount="indefinite"></animate>
  </rect>
</g><g transform="rotate(120 50 50)">
  <rect x="45" y="18" rx="3.2" ry="3.2" width="10" height="8" fill="#ff4081">
    <animate attributeName="opacity" values="1;0" keyTimes="0;1" dur="2.1739130434782608s" begin="-1.3043478260869565s" repeatCount="indefinite"></animate>
  </rect>
</g><g transform="rotate(144 50 50)">
  <rect x="45" y="18" rx="3.2" ry="3.2" width="10" height="8" fill="#ff4081">
    <animate attributeName="opacity" values="1;0" keyTimes="0;1" dur="2.1739130434782608s" begin="-1.1594202898550725s" repeatCount="indefinite"></animate>
  </rect>
</g><g transform="rotate(168 50 50)">
  <rect x="45" y="18" rx="3.2" ry="3.2" width="10" height="8" fill="#ff4081">
    <animate attributeName="opacity" values="1;0" keyTimes="0;1" dur="2.1739130434782608s" begin="-1.0144927536231882s" repeatCount="indefinite"></animate>
  </rect>
</g><g transform="rotate(192 50 50)">
  <rect x="45" y="18" rx="3.2" ry="3.2" width="10" height="8" fill="#ff4081">
    <animate attributeName="opacity" values="1;0" keyTimes="0;1" dur="2.1739130434782608s" begin="-0.8695652173913043s" repeatCount="indefinite"></animate>
  </rect>
</g><g transform="rotate(216 50 50)">
  <rect x="45" y="18" rx="3.2" ry="3.2" width="10" height="8" fill="#ff4081">
    <animate attributeName="opacity" values="1;0" keyTimes="0;1" dur="2.1739130434782608s" begin="-0.7246376811594203s" repeatCount="indefinite"></animate>
  </rect>
</g><g transform="rotate(240 50 50)">
  <rect x="45" y="18" rx="3.2" ry="3.2" width="10" height="8" fill="#ff4081">
    <animate attributeName="opacity" values="1;0" keyTimes="0;1" dur="2.1739130434782608s" begin="-0.5797101449275363s" repeatCount="indefinite"></animate>
  </rect>
</g><g transform="rotate(264 50 50)">
  <rect x="45" y="18" rx="3.2" ry="3.2" width="10" height="8" fill="#ff4081">
    <animate attributeName="opacity" values="1;0" keyTimes="0;1" dur="2.1739130434782608s" begin="-0.43478260869565216s" repeatCount="indefinite"></animate>
  </rect>
</g><g transform="rotate(288 50 50)">
  <rect x="45" y="18" rx="3.2" ry="3.2" width="10" height="8" fill="#ff4081">
    <animate attributeName="opacity" values="1;0" keyTimes="0;1" dur="2.1739130434782608s" begin="-0.2898550724637681s" repeatCount="indefinite"></animate>
  </rect>
</g><g transform="rotate(312 50 50)">
  <rect x="45" y="18" rx="3.2" ry="3.2" width="10" height="8" fill="#ff4081">
    <animate attributeName="opacity" values="1;0" keyTimes="0;1" dur="2.1739130434782608s" begin="-0.14492753623188406s" repeatCount="indefinite"></animate>
  </rect>
</g><g transform="rotate(336 50 50)">
  <rect x="45" y="18" rx="3.2" ry="3.2" width="10" height="8" fill="#ff4081">
    <animate attributeName="opacity" values="1;0" keyTimes="0;1" dur="2.1739130434782608s" begin="0s" repeatCount="indefinite"></animate>
  </rect>
</g>
<!-- [ldio] generated by https://loading.io/ --></svg>